# xmcd
#
# Track frame offsets:
#	150
#	20171
#	37953
#	70247
#	94449
#	127308
#	144429
#	161363
#	180701
#	194030
#
# Disc length: 2870 seconds
#
# Revision: 0
# Processed by: cddbd v1.5.1PL2 Copyright (c) Steve Scherf et al.
# Submitted via: dBpowerAMP V4.0
#
DISCID=960b340a
DTITLE=Chucky C and Clearly Blue - From New Orleans to The World
DYEAR=2003
DGENRE=Blues
TTITLE0=The Blues Are Alright
TTITLE1=Funky Mama
TTITLE2=Let´s Straighten It Out
TTITLE3=Hoochie Goochie Man
TTITLE4=Moon Dance
TTITLE5=Untouchable Glide
TTITLE6=Stand By Me
TTITLE7=Too Many Cooks
TTITLE8=Next Time
TTITLE9=Strokin
EXTD=
EXTT0=
EXTT1=
EXTT2=
EXTT3=
EXTT4=
EXTT5=
EXTT6=
EXTT7=
EXTT8=
EXTT9=
PLAYORDER=
